<?xml version="1.0" encoding="UTF-8"?>
<!DOCTYPE svg PUBLIC "-//W3C//DTD SVG 1.1//EN" "http://www.w3.org/Graphics/SVG/1.1/DTD/svg11.dtd">
<svg xmlns="http://www.w3.org/2000/svg" version="1.1" width="1797px" height="376px" style="shape-rendering:geometricPrecision; text-rendering:geometricPrecision; image-rendering:optimizeQuality; fill-rule:evenodd; clip-rule:evenodd" xmlns:xlink="http://www.w3.org/1999/xlink">
<g><path style="opacity:0.984" fill="#fefffe" d="M 437.5,14.5 C 439.163,45.4893 440.163,76.8226 440.5,108.5C 461.917,101.557 483.583,100.723 505.5,106C 527.681,113.516 541.514,128.682 547,151.5C 548.325,157.782 549.325,164.115 550,170.5C 550.5,211.165 550.667,251.832 550.5,292.5C 539.5,292.5 528.5,292.5 517.5,292.5C 517.862,253.486 517.362,214.486 516,175.5C 515.197,165.621 512.531,156.287 508,147.5C 501.075,138.618 491.908,133.785 480.5,133C 466.463,132.13 452.796,133.963 439.5,138.5C 439.5,189.833 439.5,241.167 439.5,292.5C 428.167,292.5 416.833,292.5 405.5,292.5C 405.167,201.831 405.5,111.164 406.5,20.5C 416.974,18.5908 427.308,16.5908 437.5,14.5 Z"/></g>
<g><path style="opacity:0.989" fill="#fefffe" d="M 45.5,37.5 C 47.3084,37.4914 48.9751,37.9914 50.5,39C 64.1708,51.9973 80.5041,59.3307 99.5,61C 112.728,64.4409 123.395,71.6076 131.5,82.5C 152.637,72.9064 174.803,68.9064 198,70.5C 220.859,69.0388 242.692,73.0388 263.5,82.5C 271.605,71.6076 282.272,64.4409 295.5,61C 314.496,59.3307 330.829,51.9973 344.5,39C 346.146,37.5986 347.813,37.432 349.5,38.5C 364.494,81.3714 360.827,122.538 338.5,162C 357.088,242.045 328.755,298.379 253.5,331C 244.021,334.096 234.355,336.429 224.5,338C 168.59,346.475 121.09,330.641 82,290.5C 51.2707,252.497 42.7707,209.831 56.5,162.5C 34.1518,122.523 30.4852,80.8564 45.5,37.5 Z M 187.5,199.5 C 215.346,197.046 241.012,203.212 264.5,218C 284.986,234.56 285.653,251.894 266.5,270C 250.896,280.87 233.563,287.203 214.5,289C 185.623,292.758 158.623,287.424 133.5,273C 124.551,267.398 118.718,259.565 116,249.5C 114.965,235.403 120.465,224.57 132.5,217C 149.508,206.607 167.842,200.773 187.5,199.5 Z"/></g>
<g><path style="opacity:0.972" fill="#fefffe" d="M 663.5,102.5 C 710.278,98.4832 741.444,118.483 757,162.5C 761.728,182.632 762.728,202.966 760,223.5C 754.596,256.866 736.429,280.033 705.5,293C 668.791,303.954 637.957,295.12 613,266.5C 599.126,246.178 592.293,223.678 592.5,199C 592.455,174.671 599.288,152.504 613,132.5C 626.288,116.443 643.122,106.443 663.5,102.5 Z M 668.5,132.5 C 692.562,130.11 709.728,139.777 720,161.5C 723.094,168.875 725.094,176.542 726,184.5C 726.667,194.833 726.667,205.167 726,215.5C 724.258,232.484 717.091,246.651 704.5,258C 688.418,268.103 671.751,269.103 654.5,261C 639.434,249.719 630.934,234.553 629,215.5C 625.652,193.686 628.986,173.019 639,153.5C 645.997,142.426 655.831,135.426 668.5,132.5 Z"/></g>
<g><path style="opacity:0.975" fill="#fefffe" d="M 864.5,102.5 C 877.504,102.333 890.504,102.5 903.5,103C 919,105 934.333,107.833 949.5,111.5C 949.667,171.834 949.5,232.168 949,292.5C 944.888,332.612 922.722,354.778 882.5,359C 855.314,362.218 828.814,359.384 803,350.5C 804.497,340.496 806.33,330.496 808.5,320.5C 831.44,329.261 855.107,332.094 879.5,329C 901.377,325.456 913.21,312.622 915,290.5C 915.667,285.833 915.667,281.167 915,276.5C 886.745,289.983 858.578,289.816 830.5,276C 808.481,261.156 796.314,240.322 794,213.5C 790.442,188.18 794.442,164.18 806,141.5C 819.566,119.631 839.066,106.631 864.5,102.5 Z M 870.5,132.5 C 879.506,132.334 888.506,132.5 897.5,133C 903.295,133.592 908.961,134.759 914.5,136.5C 915.833,172.5 915.833,208.5 914.5,244.5C 895.98,256.04 876.313,258.54 855.5,252C 839.768,242.731 830.935,228.897 829,210.5C 825.983,190.808 828.983,172.141 838,154.5C 845.622,142.283 856.456,134.949 870.5,132.5 Z"/></g>
<g><path style="opacity:0.969" fill="#fefffe" d="M 1063.5,102.5 C 1090.23,100.792 1116.56,103.125 1142.5,109.5C 1140.8,120.004 1138.47,130.338 1135.5,140.5C 1113.54,132.255 1090.88,129.422 1067.5,132C 1060.31,132.951 1053.64,135.285 1047.5,139C 1037.88,149.039 1038.21,158.706 1048.5,168C 1054.01,171.255 1059.68,174.255 1065.5,177C 1084.98,183.493 1103.98,191.16 1122.5,200C 1148.91,214.329 1157.41,235.829 1148,264.5C 1141.31,278.188 1130.64,287.188 1116,291.5C 1088.37,298.433 1060.54,299.266 1032.5,294C 1022.84,292.001 1013.5,289.001 1004.5,285C 1003.94,284.275 1003.61,283.442 1003.5,282.5C 1005.45,272.723 1007.79,263.056 1010.5,253.5C 1039.2,267.818 1069.2,271.651 1100.5,265C 1115.08,260.345 1119.91,250.845 1115,236.5C 1108.6,229.12 1100.77,223.62 1091.5,220C 1079.32,215.272 1066.98,210.939 1054.5,207C 1039.1,201.889 1025.94,193.389 1015,181.5C 1007.88,170.166 1005.54,157.832 1008,144.5C 1013.54,123.962 1026.71,111.128 1047.5,106C 1052.95,104.745 1058.29,103.578 1063.5,102.5 Z"/></g>
<g><path style="opacity:0.969" fill="#fefffe" d="M 1263.5,102.5 C 1290.23,100.792 1316.56,103.125 1342.5,109.5C 1340.8,120.004 1338.47,130.338 1335.5,140.5C 1313.54,132.255 1290.88,129.422 1267.5,132C 1260.31,132.951 1253.64,135.285 1247.5,139C 1237.88,149.039 1238.21,158.706 1248.5,168C 1254.01,171.255 1259.68,174.255 1265.5,177C 1284.98,183.493 1303.98,191.16 1322.5,200C 1348.91,214.329 1357.41,235.829 1348,264.5C 1341.31,278.188 1330.64,287.188 1316,291.5C 1288.37,298.433 1260.54,299.266 1232.5,294C 1222.84,292.001 1213.5,289.001 1204.5,285C 1203.94,284.275 1203.61,283.442 1203.5,282.5C 1205.45,272.723 1207.79,263.056 1210.5,253.5C 1239.2,267.818 1269.2,271.651 1300.5,265C 1315.08,260.345 1319.91,250.845 1315,236.5C 1308.6,229.12 1300.77,223.62 1291.5,220C 1279.32,215.272 1266.98,210.939 1254.5,207C 1239.1,201.889 1225.94,193.389 1215,181.5C 1207.88,170.166 1205.54,157.832 1208,144.5C 1213.54,123.962 1226.71,111.128 1247.5,106C 1252.95,104.745 1258.29,103.578 1263.5,102.5 Z"/></g>
<g><path style="opacity:0.977" fill="#fefffe" d="M 1467.5,102.5 C 1522.05,97.6678 1552.55,122.334 1559,176.5C 1559.5,187.161 1559.67,197.828 1559.5,208.5C 1515.5,208.5 1471.5,208.5 1427.5,208.5C 1428.84,236.716 1442.84,255.216 1469.5,264C 1493.87,268.717 1517.7,266.883 1541,258.5C 1541.77,258.645 1542.44,258.978 1543,259.5C 1544.23,268.385 1545.73,277.218 1547.5,286C 1547.09,286.945 1546.43,287.612 1545.5,288C 1515.97,298.425 1485.97,300.091 1455.5,293C 1423.51,282.681 1403.68,261.181 1396,228.5C 1391.8,209.268 1391.8,189.935 1396,170.5C 1405.8,132.866 1429.63,110.2 1467.5,102.5 Z M 1470.5,131.5 C 1505.92,129.245 1524.25,145.912 1525.5,181.5C 1493.17,181.5 1460.83,181.5 1428.5,181.5C 1432.14,155.875 1446.14,139.208 1470.5,131.5 Z"/></g>
<g><path style="opacity:0.969" fill="#fefffe" d="M 1596.5,106.5 C 1608.83,106.5 1621.17,106.5 1633.5,106.5C 1645.99,157.475 1663.16,206.809 1685,254.5C 1693.07,233.223 1700.07,211.556 1706,189.5C 1713.31,161.934 1720.14,134.267 1726.5,106.5C 1738.5,106.5 1750.5,106.5 1762.5,106.5C 1745.54,179.208 1721.71,249.541 1691,317.5C 1668.26,356.643 1635.26,368.976 1592,354.5C 1593.04,345.008 1595.04,335.675 1598,326.5C 1631.95,338.274 1656.11,327.774 1670.5,295C 1638.66,234.971 1613.99,172.138 1596.5,106.5 Z"/></g>
</svg>
